# xmcd
#
# Track frame offsets:
#	150
#	20430
#	50265
#	74695
#	95985
#	115262
#	141970
#	159480
#	174755
#	192072
#
# Disc length: 2905 seconds
#
# Revision: 1
# Processed by: cddbd v1.5.2PL0 Copyright (c) Steve Scherf et al.
# Submitted via: EZCDAudioConverter 8.0.2.1
#
DISCID=870b570a
DTITLE=Various Artist - Tình Nghệ Sĩ
DYEAR=1992
DGENRE=Contemporary Pop
TTITLE0=Elvis Phương - Bãi Thượng Hải
TTITLE1=Thái Châu - Niệm khúc cuối
TTITLE2=Elvis Phương - Thôi
TTITLE3=Thái Châu - Một lần cho tôi gặp lại em
TTITLE4=Elvis Phương - Sầu đông
TTITLE5=Thái Châu - Trả lại em yêu
TTITLE6=Vũ Khanh - Tình Nghệ Sỹ
TTITLE7=Thái Châu - Tan vỡ
TTITLE8=Vũ Khanh - Từ ngày em đi
TTITLE9=Thái Châu - Để quên con tim
EXTD=
EXTT0=
EXTT1=
EXTT2=
EXTT3=
EXTT4=
EXTT5=
EXTT6=
EXTT7=
EXTT8=
EXTT9=
PLAYORDER=
